<?xml version="1.0" encoding="UTF-8" standalone="no"?>
<!-- Generator: Adobe Illustrator 28.2.0, SVG Export Plug-In . SVG Version: 6.00 Build 0)  -->

<svg
   version="1.1"
   id="Layer_1"
   x="0px"
   y="0px"
   viewBox="0 0 226.77166 74.249924"
   xml:space="preserve"
   sodipodi:docname="front1.svg"
   inkscape:version="1.3 (0e150ed, 2023-07-21)"
   width="226.77165"
   height="74.249924"
   xmlns:inkscape="http://www.inkscape.org/namespaces/inkscape"
   xmlns:sodipodi="http://sodipodi.sourceforge.net/DTD/sodipodi-0.dtd"
   xmlns="http://www.w3.org/2000/svg"
   xmlns:svg="http://www.w3.org/2000/svg"><defs
   id="defs4" /><sodipodi:namedview
   id="namedview4"
   pagecolor="#ffffff"
   bordercolor="#000000"
   borderopacity="0.25"
   inkscape:showpageshadow="2"
   inkscape:pageopacity="0.0"
   inkscape:pagecheckerboard="0"
   inkscape:deskcolor="#d1d1d1"
   inkscape:zoom="3.2243905"
   inkscape:cx="101.25945"
   inkscape:cy="59.236001"
   inkscape:window-width="1280"
   inkscape:window-height="771"
   inkscape:window-x="0"
   inkscape:window-y="33"
   inkscape:window-maximized="0"
   inkscape:current-layer="Layer_1"
   inkscape:document-units="cm" />&#10;<style
   type="text/css"
   id="style1">&#10;	.st0{fill:#1AFD85;}&#10;	.st1{fill:none;stroke:#1AFD85;stroke-width:3;}&#10;</style>&#10;&#10;&#10;&#10;&#10;<path
   class="st0"
   d="m 82.757737,51.510887 c -2.629695,0 -5.104687,-0.618749 -7.270312,-1.70156 -2.165621,-1.237499 -3.867182,-2.784373 -5.104681,-4.795308 -1.237499,-2.010935 -1.856248,-4.331246 -1.856248,-6.960931 0,-2.474997 0.618749,-4.795308 1.856248,-6.806243 1.237499,-2.010936 2.93906,-3.712497 5.104681,-4.795308 2.165625,-1.237499 4.640617,-1.701561 7.270312,-1.701561 2.62968,0 5.10468,0.618749 7.270298,1.701561 2.165625,1.237498 3.86718,2.784372 5.10468,4.795308 1.2375,2.010935 1.856258,4.331245 1.856258,6.806243 0,2.474997 -0.618758,4.795308 -1.856258,6.960931 -1.2375,2.010935 -2.939055,3.557809 -5.10468,4.795308 -2.165617,1.237498 -4.640617,1.70156 -7.270298,1.70156 z m 0,-5.104682 c 1.546868,0 2.939055,-0.309375 4.176555,-1.082812 1.237501,-0.773437 2.165626,-1.70156 2.939055,-2.939059 0.773438,-1.237499 1.082813,-2.629685 1.082813,-4.331246 0,-1.546874 -0.309375,-3.093747 -1.082813,-4.331246 -0.618742,-1.237499 -1.701554,-2.165623 -2.939055,-2.939059 -1.2375,-0.773437 -2.629687,-1.082812 -4.176555,-1.082812 -1.546882,0 -2.93907,0.309375 -4.176562,1.082812 -1.2375,0.618749 -2.165625,1.70156 -2.939063,2.939059 -0.61875,1.237499 -1.082809,2.629685 -1.082809,4.331246 0,1.546874 0.309374,3.093747 1.082809,4.331246 0.773438,1.237499 1.701563,2.32031 2.939063,2.939059 1.237493,0.773437 2.62968,1.082812 4.176562,1.082812 z M 125.29675,25.059351 v 25.987474 h -4.94999 L 107.35302,35.268716 V 51.046825 H 101.4749 V 25.059351 h 4.94999 L 119.41864,40.83746 V 25.059351 Z m 26.29685,21.192167 v 4.795307 H 131.48425 V 25.059351 h 19.64529 v 4.795308 h -13.61249 v 5.568744 h 12.06562 v 4.640621 h -12.06562 v 6.032806 h 14.07655 z m 10.20937,-16.242172 h -8.35311 v -4.949995 h 22.58435 v 4.949995 h -8.35313 v 21.037479 h -6.0328 V 30.009346 Z m 37.58902,16.242172 v 4.795307 H 179.28264 V 25.059351 h 19.6453 v 4.795308 h -13.6125 v 5.568744 h 12.06562 v 4.640621 h -12.06561 v 6.032806 h 14.07654 z m 16.08749,-21.192167 c 2.32031,0 4.33124,0.309374 6.03281,1.082811 1.70155,0.773437 3.09374,1.856249 3.86718,3.248434 0.92812,1.392187 1.39219,3.093747 1.39219,4.949995 0,1.856249 -0.46407,3.55781 -1.39219,4.949996 -0.92813,1.392186 -2.16562,2.474998 -3.86718,3.248434 -1.70157,0.773437 -3.7125,1.082812 -6.03281,1.082812 h -5.25937 v 7.115618 h -6.03281 v -25.6781 z m -0.30937,13.921862 c 1.85624,0 3.24843,-0.309376 4.17655,-1.082812 0.92813,-0.773437 1.39219,-1.856248 1.39219,-3.403122 0,-1.392186 -0.46406,-2.629685 -1.39219,-3.403122 -0.92812,-0.773437 -2.32031,-1.237498 -4.17655,-1.237498 h -4.95 v 8.971866 h 4.95 z"
   id="path1"
   style="fill:#ffffff;fill-opacity:1;stroke-width:1.54688" /><circle
   class="st1"
   cx="29.390596"
   cy="37.124966"
   id="circle1"
   style="fill:none;stroke:#ffffff;stroke-width:4.62;stroke-dasharray:none;stroke-opacity:1"
   r="25.523411" /><path
   class="st0"
   d="m 19.645294,19.335919 h 6.187494 L 6.187494,74.249927 H 0 Z"
   id="path2"
   style="fill:#ffffff;fill-opacity:1;stroke-width:1.54688" /><path
   class="st0"
   d="m 52.903073,0 h 5.414058 L 38.671837,54.914009 h -6.187494 z"
   id="path3"
   style="fill:#ffffff;fill-opacity:1;stroke-width:1.54688" /><path
   class="st0"
   d="m 32.484343,54.914009 h 6.187494 L 25.832788,19.335919 h -6.187494 z"
   id="path4"
   style="fill:#ffffff;fill-opacity:1;stroke-width:1.54688" />&#10;</svg>
